REM DIRINDEX 1\2,1\3,1\4,1\6,1\5\7,1\5\8
REM DIRNAME folder01,folder02,folder03,folder04,folder05,folder06,folder07,folder08
TITLE ""
FILE "DB4500_5th_4B_39.mp3" MP3
  TRACK 01 AUDIO
    TITLE "0:"
    INDEX 01 00:00:00
  TRACK 02 AUDIO
    TITLE "2:cjc114_3033"
    INDEX 01 00:00:03
  TRACK 03 AUDIO
    TITLE "0:"
    INDEX 01 00:01:05
  TRACK 04 AUDIO
    TITLE "3:cjc114_3034"
    INDEX 01 00:01:34
  TRACK 05 AUDIO
    TITLE "0:"
    INDEX 01 00:02:30
  TRACK 06 AUDIO
    TITLE "4:cjc114_3035"
    INDEX 01 00:02:57
  TRACK 07 AUDIO
    TITLE "0:"
    INDEX 01 00:05:30
  TRACK 08 AUDIO
    TITLE "2:cjc114_3036"
    INDEX 01 00:06:10
  TRACK 09 AUDIO
    TITLE "0:"
    INDEX 01 00:09:02
  TRACK 10 AUDIO
    TITLE "3:cjc114_3037"
    INDEX 01 00:09:34
  TRACK 11 AUDIO
    TITLE "0:"
    INDEX 01 00:10:39
  TRACK 12 AUDIO
    TITLE "4:cjc114_3038"
    INDEX 01 00:10:74
  TRACK 13 AUDIO
    TITLE "0:"
    INDEX 01 00:15:74
  TRACK 14 AUDIO
    TITLE "2:cjc114_3039"
    INDEX 01 00:16:51
  TRACK 15 AUDIO
    TITLE "0:"
    INDEX 01 00:17:57
  TRACK 16 AUDIO
    TITLE "3:cjc114_3040"
    INDEX 01 00:18:09
  TRACK 17 AUDIO
    TITLE "0:"
    INDEX 01 00:19:15
  TRACK 18 AUDIO
    TITLE "4:cjc114_3041"
    INDEX 01 00:19:40
  TRACK 19 AUDIO
    TITLE "0:"
    INDEX 01 00:25:07
  TRACK 20 AUDIO
    TITLE "2:cjc114_3042"
    INDEX 01 00:25:62
  TRACK 21 AUDIO
    TITLE "0:"
    INDEX 01 00:26:64
  TRACK 22 AUDIO
    TITLE "3:cjc114_3043"
    INDEX 01 00:27:16
  TRACK 23 AUDIO
    TITLE "0:"
    INDEX 01 00:28:31
  TRACK 24 AUDIO
    TITLE "4:cjc114_3044"
    INDEX 01 00:28:59
  TRACK 25 AUDIO
    TITLE "0:"
    INDEX 01 00:31:71
  TRACK 26 AUDIO
    TITLE "2:cjc114_3045"
    INDEX 01 00:32:48
  TRACK 27 AUDIO
    TITLE "0:"
    INDEX 01 00:33:52
  TRACK 28 AUDIO
    TITLE "3:cjc114_3046"
    INDEX 01 00:34:04
  TRACK 29 AUDIO
    TITLE "0:"
    INDEX 01 00:35:29
  TRACK 30 AUDIO
    TITLE "4:cjc114_3047"
    INDEX 01 00:35:57
  TRACK 31 AUDIO
    TITLE "0:"
    INDEX 01 00:38:39
  TRACK 32 AUDIO
    TITLE "2:cjc114_3048"
    INDEX 01 00:39:19
  TRACK 33 AUDIO
    TITLE "0:"
    INDEX 01 00:40:13
  TRACK 34 AUDIO
    TITLE "3:cjc114_3049"
    INDEX 01 00:40:42
  TRACK 35 AUDIO
    TITLE "0:"
    INDEX 01 00:41:47
  TRACK 36 AUDIO
    TITLE "4:cjc114_3050"
    INDEX 01 00:42:02
  TRACK 37 AUDIO
    TITLE "0:"
    INDEX 01 00:45:30
  TRACK 38 AUDIO
    TITLE "2:cjc114_3051"
    INDEX 01 00:46:09
  TRACK 39 AUDIO
    TITLE "0:"
    INDEX 01 00:47:21
  TRACK 40 AUDIO
    TITLE "3:cjc114_3052"
    INDEX 01 00:47:50
  TRACK 41 AUDIO
    TITLE "0:"
    INDEX 01 00:48:69
  TRACK 42 AUDIO
    TITLE "4:cjc114_3053"
    INDEX 01 00:49:21
  TRACK 43 AUDIO
    TITLE "0:"
    INDEX 01 00:52:45
  TRACK 44 AUDIO
    TITLE "2:cjc114_3054"
    INDEX 01 00:53:23
  TRACK 45 AUDIO
    TITLE "0:"
    INDEX 01 00:54:30
  TRACK 46 AUDIO
    TITLE "3:cjc114_3055"
    INDEX 01 00:54:60
  TRACK 47 AUDIO
    TITLE "0:"
    INDEX 01 00:56:10
  TRACK 48 AUDIO
    TITLE "4:cjc114_3056"
    INDEX 01 00:56:39
  TRACK 49 AUDIO
    TITLE "0:"
    INDEX 01 01:00:64
  TRACK 50 AUDIO
    TITLE "4:cjc114_3057"
    INDEX 01 01:01:40
  TRACK 51 AUDIO
    TITLE "0:"
    INDEX 01 01:04:47
  TRACK 52 AUDIO
    TITLE "2:cjc114_3058"
    INDEX 01 01:05:24
  TRACK 53 AUDIO
    TITLE "0:"
    INDEX 01 01:06:36
  TRACK 54 AUDIO
    TITLE "3:cjc114_3059"
    INDEX 01 01:06:65
  TRACK 55 AUDIO
    TITLE "0:"
    INDEX 01 01:08:07
  TRACK 56 AUDIO
    TITLE "4:cjc114_3060"
    INDEX 01 01:08:36
  TRACK 57 AUDIO
    TITLE "0:"
    INDEX 01 01:11:41
  TRACK 58 AUDIO
    TITLE "2:cjc114_3061"
    INDEX 01 01:12:19
  TRACK 59 AUDIO
    TITLE "0:"
    INDEX 01 01:13:20
  TRACK 60 AUDIO
    TITLE "3:cjc114_3062"
    INDEX 01 01:13:47
  TRACK 61 AUDIO
    TITLE "0:"
    INDEX 01 01:14:55
  TRACK 62 AUDIO
    TITLE "4:cjc114_3063"
    INDEX 01 01:15:07
  TRACK 63 AUDIO
    TITLE "0:"
    INDEX 01 01:18:17
  TRACK 64 AUDIO
    TITLE "2:cjc114_3064"
    INDEX 01 01:18:74
  TRACK 65 AUDIO
    TITLE "0:"
    INDEX 01 01:20:00
  TRACK 66 AUDIO
    TITLE "3:cjc114_3065"
    INDEX 01 01:20:32
  TRACK 67 AUDIO
    TITLE "0:"
    INDEX 01 01:22:29
  TRACK 68 AUDIO
    TITLE "4:cjc114_3066"
    INDEX 01 01:22:56
  TRACK 69 AUDIO
    TITLE "0:"
    INDEX 01 01:26:11
  TRACK 70 AUDIO
    TITLE "2:cjc114_3067"
    INDEX 01 01:26:66
  TRACK 71 AUDIO
    TITLE "0:"
    INDEX 01 01:27:63
  TRACK 72 AUDIO
    TITLE "3:cjc114_3068"
    INDEX 01 01:28:16
  TRACK 73 AUDIO
    TITLE "0:"
    INDEX 01 01:29:52
  TRACK 74 AUDIO
    TITLE "4:cjc114_3069"
    INDEX 01 01:30:07
  TRACK 75 AUDIO
    TITLE "0:"
    INDEX 01 01:32:51
  TRACK 76 AUDIO
    TITLE "2:cjc114_3070"
    INDEX 01 01:33:29
  TRACK 77 AUDIO
    TITLE "0:"
    INDEX 01 01:34:36
  TRACK 78 AUDIO
    TITLE "3:cjc114_3071"
    INDEX 01 01:34:63
  TRACK 79 AUDIO
    TITLE "0:"
    INDEX 01 01:36:00
  TRACK 80 AUDIO
    TITLE "4:cjc114_3072"
    INDEX 01 01:36:27
  TRACK 81 AUDIO
    TITLE "0:"
    INDEX 01 01:40:07
